<svg xmlns="http://www.w3.org/2000/svg" fill="none" viewBox="39.595050618672666 0 49.673790776152984 72" style="max-height: 500px" width="49.673790776152984" height="72">
<path fill="#3917B3" d="M67.3242 1.51161L87.9426 23.0466C88.6383 23.7626 89 24.6989 89 25.6903V53.9998H86.4123V25.6903C86.4123 25.3598 86.2731 25.0569 86.0505 24.8091L65.4321 3.27407C64.9313 2.75084 64.0687 2.75084 63.5679 3.27407L42.9495 24.8091C42.7269 25.0569 42.5877 25.3598 42.5877 25.6903V50.1719C42.5877 50.8879 43.1721 51.4387 43.8677 51.4387H64.4861C65.7939 51.4387 67.7695 51.0532 69.3833 49.8965C70.9415 48.795 72.2215 46.9499 72.2215 43.783C72.2215 40.6161 70.9137 38.771 69.3833 37.6695C67.7695 36.5129 65.7939 36.1274 64.4861 36.1274H61.1471V33.5663H64.4861C65.1261 33.5663 66.1556 33.3735 66.9625 32.7952C67.7138 32.272 68.3538 31.3632 68.3538 29.7385C68.3538 28.1137 67.7138 27.2325 66.9625 26.6817C66.1556 26.1034 65.1539 25.9106 64.4861 25.9106H58.0307C57.3072 25.9106 56.7507 26.4889 56.7507 27.1774V45.8484H54.163V27.1774C54.163 25.0569 55.8881 23.3495 58.0307 23.3495H64.4861C65.5434 23.3495 67.1295 23.6525 68.4651 24.6163C69.8563 25.6077 70.9415 27.2875 70.9415 29.7385C70.9415 32.1894 70.1068 33.4837 68.9381 34.5026C69.6059 34.778 70.2737 35.136 70.8859 35.6041C73.1119 37.1738 74.8092 39.79 74.8092 43.783C74.8092 47.7761 73.1119 50.3922 70.8859 51.9619C68.7433 53.4765 66.2112 53.9998 64.4861 53.9998H40V25.6903C40 24.6989 40.3896 23.7626 41.0574 23.0466L61.6758 1.51437C62.427 0.715754 63.4566 -0.000244141 64.4861 -0.000244141C65.5156 -0.000244141 66.5173 0.715754 67.2964 1.51437H67.3242V1.51161Z"></path>
<path fill="#3917B3" d="M67.4085 62.4311C67.2265 62.2441 66.9369 62.1478 66.5397 62.1478H65.0806V64.2271H66.5397C66.9369 64.2271 67.2265 64.1309 67.4085 63.9411C67.5906 63.7486 67.6816 63.4955 67.6816 63.1792C67.6816 62.8629 67.5906 62.6209 67.4085 62.4311Z"></path>
<path fill="#3917B3" d="M40 56.8726V71.9998H88.8208V56.8726H40ZM48.0403 67.4396C47.6376 67.7862 47.0749 67.9594 46.3522 67.9594H42.9954V61.0284H46.2336C46.7163 61.0284 47.1245 61.1082 47.461 61.265C47.7975 61.4217 48.0513 61.639 48.2251 61.914C48.3988 62.1891 48.4871 62.4971 48.4871 62.8409C48.4871 63.303 48.3602 63.655 48.1037 63.8998C47.8499 64.1446 47.5327 64.3014 47.1549 64.3757V64.4554C47.6127 64.5159 47.9741 64.6782 48.2416 64.945C48.5092 65.2118 48.6443 65.5968 48.6443 66.0974C48.6443 66.6447 48.443 67.0931 48.0375 67.4396H48.0403ZM58.2733 66.8318C58.0389 67.2141 57.7244 67.5111 57.33 67.7229C56.9356 67.9347 56.497 68.0392 56.0143 68.0392C55.5316 68.0392 55.1096 67.9347 54.729 67.7229C54.3483 67.5111 54.0449 67.2141 53.8215 66.8318C53.5953 66.4495 53.485 65.9956 53.485 65.4758C53.485 64.956 53.5981 64.5049 53.827 64.1254C54.056 63.7458 54.3621 63.4515 54.751 63.2397C55.1372 63.028 55.573 62.9234 56.0557 62.9234C56.5384 62.9234 56.9659 63.028 57.3576 63.2397C57.7492 63.4515 58.0582 63.7458 58.2871 64.1254C58.516 64.5049 58.6291 64.956 58.6291 65.4758C58.6291 65.9956 58.5105 66.4495 58.2761 66.8318H58.2733ZM67.5824 67.9594L66.0543 65.2475H65.0806V67.9594H63.7098V61.0284H66.5894C67.1466 61.0284 67.6072 61.1247 67.974 61.3145C68.3409 61.507 68.6167 61.7628 68.7987 62.0873C68.9808 62.4119 69.0718 62.7639 69.0718 63.1462C69.0718 63.424 69.0194 63.6963 68.9118 63.9631C68.807 64.2299 68.636 64.4692 68.4043 64.6754C68.1726 64.8845 67.872 65.0357 67.4996 65.1348L69.1683 67.9567H67.5796L67.5824 67.9594ZM75.6447 67.9594H74.2849V63.0087H75.6447V67.9594ZM75.5564 62.1533C75.4047 62.3019 75.2089 62.3761 74.9717 62.3761C74.7345 62.3761 74.5386 62.3019 74.3869 62.1533C74.2352 62.0048 74.158 61.8205 74.158 61.6032C74.158 61.386 74.2352 61.2017 74.3869 61.0532C74.5386 60.9046 74.7345 60.8304 74.9717 60.8304C75.2089 60.8304 75.4047 60.9046 75.5564 61.0532C75.7081 61.2017 75.7854 61.386 75.7854 61.6032C75.7854 61.8205 75.7081 62.0048 75.5564 62.1533ZM85.6185 66.9995C85.4309 67.3103 85.1523 67.5579 84.7855 67.7476C84.4186 67.9347 83.9718 68.0309 83.4505 68.0309C83.0257 68.0309 82.6341 67.9677 82.27 67.8384C81.9059 67.7091 81.597 67.5249 81.346 67.2828C81.095 67.0408 80.9295 66.7465 80.8495 66.3972L82.11 66.0506C82.1707 66.3284 82.3169 66.543 82.5513 66.6942C82.7858 66.8455 83.0699 66.9225 83.4008 66.9225C83.7318 66.9225 84.0077 66.84 84.209 66.675C84.4104 66.51 84.5124 66.2982 84.5124 66.0424C84.5124 65.8251 84.449 65.6518 84.3193 65.5226C84.1897 65.3933 84.0187 65.2888 83.8035 65.2063C83.5884 65.1238 83.354 65.0468 83.0974 64.978C82.8437 64.9092 82.5872 64.8295 82.3279 64.7415C82.0686 64.6534 81.8342 64.5379 81.6218 64.3949C81.4094 64.2519 81.2384 64.0676 81.1115 63.8366C80.9846 63.6055 80.9184 63.3085 80.9184 62.9454C80.9184 62.5301 81.0232 62.1726 81.2301 61.87C81.4397 61.5702 81.7266 61.3392 82.0934 61.1824C82.4603 61.0257 82.8823 60.9459 83.3595 60.9459C83.969 60.9459 84.4848 61.0752 84.9096 61.331C85.3344 61.5895 85.6185 61.9525 85.7646 62.4201L84.5234 62.7667C84.471 62.5631 84.3386 62.3954 84.1263 62.2661C83.9139 62.1368 83.6656 62.0708 83.3815 62.0626C83.0974 62.0488 82.8464 62.1148 82.6313 62.2551C82.4162 62.3981 82.3086 62.6126 82.3086 62.9042C82.3086 63.1022 82.372 63.2645 82.5017 63.3883C82.6313 63.512 82.8023 63.6193 83.0174 63.7046C83.2326 63.7898 83.467 63.8696 83.7236 63.9411C83.9773 64.0126 84.2338 64.0951 84.4876 64.1886C84.7413 64.2821 84.9786 64.4004 85.1937 64.5489C85.4088 64.6975 85.5798 64.8872 85.7095 65.1183C85.8391 65.3493 85.9026 65.6353 85.9026 65.9791C85.9026 66.3477 85.8088 66.6887 85.6185 66.9995Z"></path>
<path fill="#3917B3" d="M56.6155 64.2464C56.4335 64.1474 56.2404 64.0979 56.0335 64.0979C55.7301 64.0979 55.4598 64.2107 55.2254 64.4334C54.9909 64.659 54.8723 65.0055 54.8723 65.4731C54.8723 65.9407 54.9854 66.29 55.2143 66.5183C55.4433 66.7465 55.7081 66.8593 56.0142 66.8593C56.2183 66.8593 56.4142 66.8098 56.599 66.7108C56.7838 66.6118 56.9355 66.4577 57.0568 66.2515C57.1754 66.0424 57.2361 65.7839 57.2361 65.4731C57.2361 65.1623 57.1782 64.9065 57.0624 64.7002C56.9465 64.494 56.7976 64.3427 56.6155 64.2437V64.2464Z"></path>
<path fill="#3917B3" d="M46.1425 64.9807H44.3662V66.862H46.1729C46.5176 66.862 46.7852 66.7822 46.9783 66.62C47.1713 66.4577 47.2651 66.2294 47.2651 65.9324C47.2651 65.6353 47.1631 65.3933 46.9562 65.2282C46.7521 65.0632 46.479 64.9807 46.1425 64.9807Z"></path>
<path fill="#3917B3" d="M46.8183 63.6825C47.0031 63.5312 47.0969 63.314 47.0969 63.0279C47.0969 62.7419 47.0031 62.5218 46.8183 62.3651C46.6335 62.2056 46.3742 62.1285 46.0432 62.1285H44.3662V63.9108H46.0432C46.3742 63.9108 46.6335 63.8338 46.8183 63.6825Z"></path>
</svg>

